<svg width="47" height="22" fill="none" viewBox="0 0 47 22" xmlns="http://www.w3.org/2000/svg"><path d="M7.776 9H6.312V2.91L2.304 9H.84V.36h1.464v6.09L6.312.36h1.464V9zm1.39 0c.608.128 1.08.11 1.416-.054.34-.168.594-.45.762-.846.172-.396.31-.872.414-1.428.116-.612.21-1.23.282-1.854.072-.624.128-1.206.168-1.746.044-.544.078-.996.102-1.356h3V9h1.446V.36h-5.784c-.016.332-.038.726-.066 1.182-.024.452-.058.938-.102 1.458-.04.52-.092 1.048-.156 1.584a21.42 21.42 0 01-.228 1.536c-.084.464-.174.82-.27 1.068-.096.244-.22.41-.372.498-.152.084-.356.118-.612.102V9zm9.427 0h3.57a5.566 5.566 0 00.696-.048c.748-.116 1.3-.428 1.656-.936.36-.508.54-1.118.54-1.83s-.18-1.322-.54-1.83c-.36-.508-.912-.818-1.656-.93a2.551 2.551 0 00-.372-.036 5.818 5.818 0 00-.324-.012H20.04V.36h-1.446V9zm1.446-1.356V4.728h2.064c.08 0 .17.004.27.012s.194.024.282.048c.24.06.428.166.564.318.136.152.232.324.288.516.06.192.09.38.09.564 0 .276-.068.556-.204.84-.136.284-.382.472-.738.564-.088.02-.182.034-.282.042-.1.008-.19.012-.27.012H20.04zM32.76 9h-1.446V5.982h-2.052L27.798 9H26.16l1.596-3.276a2.24 2.24 0 01-1.098-1.002c-.24-.448-.36-.964-.36-1.548 0-.716.178-1.326.534-1.83.36-.508.916-.82 1.668-.936.112-.02.234-.032.366-.036.132-.008.24-.012.324-.012h3.57V9zm-1.446-4.368V1.716H29.25c-.08 0-.17.004-.27.012a1.82 1.82 0 00-.276.042c-.24.06-.43.168-.57.324a1.386 1.386 0 00-.294.516c-.056.192-.084.38-.084.564 0 .184.028.372.084.564.06.192.158.364.294.516.14.152.33.258.57.318.084.024.176.04.276.048.1.008.19.012.27.012h2.064zM.84 21h3.774c.852 0 1.498-.236 1.938-.708.44-.472.66-1.092.66-1.86 0-.436-.108-.832-.324-1.188a1.937 1.937 0 00-.942-.798c.268-.16.478-.386.63-.678.156-.296.234-.64.234-1.032 0-.388-.092-.764-.276-1.128a2.178 2.178 0 00-.834-.894c-.372-.236-.85-.354-1.434-.354H.84V21zm1.464-5.19v-2.1h1.944c.344 0 .612.1.804.3.192.2.288.45.288.75 0 .344-.106.606-.318.786a1.157 1.157 0 01-.774.264H2.304zm0 3.828V17.16h2.172c.404 0 .718.118.942.354.224.236.336.528.336.876 0 .384-.126.688-.378.912-.248.224-.562.336-.942.336h-2.13zM8.42 21H14v-1.356H9.866v-2.442h3.414v-1.356H9.866v-2.13H14V12.36H8.42V21zm9.566 0h1.446v-7.284h2.796V12.36H15.19v1.356h2.796V21zm5.441 0h1.446v-3.018h2.124a5.511 5.511 0 00.69-.048c.744-.116 1.296-.426 1.656-.93.364-.508.546-1.118.546-1.83 0-.716-.18-1.326-.54-1.83-.356-.508-.91-.82-1.662-.936a2.521 2.521 0 00-.366-.036 5.566 5.566 0 00-.324-.012h-3.57V21zm1.446-4.368v-2.916h2.064c.08 0 .17.004.27.012s.192.022.276.042c.24.06.428.168.564.324.14.152.238.324.294.516.06.192.09.38.09.564 0 .184-.03.372-.09.564a1.284 1.284 0 01-.294.516 1.087 1.087 0 01-.564.318c-.084.024-.176.04-.276.048-.1.008-.19.012-.27.012h-2.064zm10.112 4.548c.864 0 1.604-.188 2.22-.564a3.717 3.717 0 001.422-1.584c.332-.676.498-1.46.498-2.352 0-.896-.166-1.68-.498-2.352a3.678 3.678 0 00-1.422-1.578c-.616-.38-1.356-.57-2.22-.57-.86 0-1.6.19-2.22.57a3.73 3.73 0 00-1.422 1.578c-.328.672-.492 1.456-.492 2.352 0 .892.164 1.676.492 2.352a3.769 3.769 0 001.422 1.584c.62.376 1.36.564 2.22.564zm0-1.362c-.868-.012-1.52-.302-1.956-.87-.436-.568-.652-1.324-.648-2.268.004-.632.102-1.184.294-1.656s.48-.838.864-1.098c.384-.264.866-.392 1.446-.384.872.012 1.524.302 1.956.87.436.568.654 1.324.654 2.268 0 .628-.098 1.18-.294 1.656a2.345 2.345 0 01-.87 1.098c-.384.26-.866.388-1.446.384zM40.354 21h3.774c.852 0 1.498-.236 1.938-.708.44-.472.66-1.092.66-1.86 0-.436-.108-.832-.324-1.188a1.937 1.937 0 00-.942-.798c.268-.16.478-.386.63-.678.156-.296.234-.64.234-1.032 0-.388-.092-.764-.276-1.128a2.178 2.178 0 00-.834-.894c-.372-.236-.85-.354-1.434-.354h-3.426V21zm1.464-5.19v-2.1h1.944c.344 0 .612.1.804.3.192.2.288.45.288.75 0 .344-.106.606-.318.786a1.157 1.157 0 01-.774.264h-1.944zm0 3.828V17.16h2.172c.404 0 .718.118.942.354.224.236.336.528.336.876 0 .384-.126.688-.378.912-.248.224-.562.336-.942.336h-2.13z" fill="#fff"/></svg>