<svg width="48" height="22" fill="none" viewBox="0 0 48 22" xmlns="http://www.w3.org/2000/svg"><path d="M2.824 21h2.118l2.724-8.64H6.178l-2.31 7.236-2.28-7.236H.1L2.824 21zm5.902 0h5.58v-1.356h-4.134v-2.442h3.414v-1.356h-3.414v-2.13h4.134V12.36h-5.58V21zm9.532 0h1.446v-7.284H22.5V12.36h-7.038v1.356h2.796V21zm5.442 0h1.445v-3.018h2.052L28.661 21H30.3l-1.596-3.276a2.24 2.24 0 001.098-1.002c.24-.448.36-.964.36-1.548 0-.716-.18-1.326-.54-1.83-.356-.508-.91-.82-1.662-.936a2.521 2.521 0 00-.366-.036 5.566 5.566 0 00-.324-.012H23.7V21zm1.445-4.368v-2.916h2.064c.08 0 .17.004.27.012s.192.022.276.042c.24.06.428.168.564.324.14.152.238.324.294.516.06.192.09.38.09.564 0 .184-.03.372-.09.564a1.284 1.284 0 01-.294.516 1.087 1.087 0 01-.564.318c-.084.024-.176.04-.276.048-.1.008-.19.012-.27.012h-2.064zm10.104 4.548c.864 0 1.604-.188 2.22-.564a3.717 3.717 0 001.422-1.584c.332-.676.498-1.46.498-2.352 0-.896-.166-1.68-.498-2.352a3.678 3.678 0 00-1.422-1.578c-.616-.38-1.356-.57-2.22-.57-.86 0-1.6.19-2.22.57a3.73 3.73 0 00-1.422 1.578c-.328.672-.492 1.456-.492 2.352 0 .892.164 1.676.492 2.352a3.769 3.769 0 001.422 1.584c.62.376 1.36.564 2.22.564zm0-1.362c-.868-.012-1.52-.302-1.956-.87-.436-.568-.652-1.324-.648-2.268.004-.632.102-1.184.294-1.656s.48-.838.864-1.098c.384-.264.866-.392 1.446-.384.872.012 1.524.302 1.956.87.436.568.654 1.324.654 2.268 0 .628-.098 1.18-.294 1.656a2.345 2.345 0 01-.87 1.098c-.384.26-.866.388-1.446.384zM42.404 21h2.118l2.724-8.64h-1.488l-2.31 7.236-2.28-7.236H39.68L42.404 21zM0 9h1.446V.36H0V9zm3.299 0H8.56V7.644H4.745V.36H3.299V9zm7.12 0h1.446V.36h-1.446V9zm2.883 0h1.488l.588-1.872h3.408L19.38 9h1.488L18.144.36h-2.118L13.302 9zm2.502-3.222l1.266-4.02 1.284 4.02h-2.55z" fill="#fff"/></svg>